HIERARCHY
ROOT Pelvis
{
	OFFSET 0.000000 0.000000 0.000000
	CHANNELS 6 Xposition Yposition Zposition Xrotation Yrotation Zrotation
	JOINT LeftUpLeg_virtual
	{
		OFFSET 0.000000 0.000000 0.000000
		CHANNELS 3 Xrotation Yrotation Zrotation
		JOINT LeftUpLeg
		{
			OFFSET 18.735201 -5.666702 -4.541200
			CHANNELS 3 Xrotation Yrotation Zrotation
			JOINT LeftLeg
			{
				OFFSET -0.021200 -31.938179 0.493100
				CHANNELS 3 Xrotation Yrotation Zrotation
				JOINT LeftFoot
				{
					OFFSET 0.021200 -31.938179 -4.336299
					CHANNELS 3 Xrotation Yrotation Zrotation
					JOINT LeftToeBase
					{
						OFFSET 0.943001 -26.722000 15.023500
						CHANNELS 3 Xrotation Yrotation Zrotation
						End Site
						{
							OFFSET 0 0 0
						}
					}
				}
			}
		}
	}
	JOINT RightUpLeg_virtual
	{
		OFFSET 0.000000 0.000000 0.000000
		CHANNELS 3 Xrotation Yrotation Zrotation
		JOINT RightUpLeg
		{
			OFFSET -18.735201 -5.666702 -4.541200
			CHANNELS 3 Xrotation Yrotation Zrotation
			JOINT RightLeg
			{
				OFFSET 0.018946 -31.938133 0.493100
				CHANNELS 3 Xrotation Yrotation Zrotation
				JOINT RightFoot
				{
					OFFSET -0.018946 -31.938126 -4.336299
					CHANNELS 3 Xrotation Yrotation Zrotation
					JOINT RightToeBase
					{
						OFFSET -0.943001 -26.722004 15.023500
						CHANNELS 3 Xrotation Yrotation Zrotation
						End Site
						{
							OFFSET 0 0 0
						}
					}
				}
			}
		}
	}
	JOINT Hips_virtual
	{
		OFFSET 0.000000 0.000000 0.000000
		CHANNELS 3 Xrotation Yrotation Zrotation
		JOINT Hips
		{
			OFFSET -0.000000 -0.000000 -0.000000
			CHANNELS 3 Xrotation Yrotation Zrotation
			JOINT Spine
			{
				OFFSET 0.000000 10.199997 -0.299500
				CHANNELS 3 Xrotation Yrotation Zrotation
				JOINT Spine1
				{
					OFFSET 0.000000 11.900002 -1.516600
					CHANNELS 3 Xrotation Yrotation Zrotation
					JOINT Spine2
					{
						OFFSET 0.000000 13.600006 -2.842500
						CHANNELS 3 Xrotation Yrotation Zrotation
						JOINT Neck_virtual
						{
							OFFSET 0.000000 0.000000 0.000000
							CHANNELS 3 Xrotation Yrotation Zrotation
							JOINT Neck
							{
								OFFSET 0.000000 9.624100 -2.890100
								CHANNELS 3 Xrotation Yrotation Zrotation
								JOINT Head
								{
									OFFSET 0.000000 14.068802 -1.351900
									CHANNELS 3 Xrotation Yrotation Zrotation
									End Site
									{
										OFFSET 0 0 0
									}
								}
							}
						}
						JOINT LeftShoulder_virtual
						{
							OFFSET 0.000000 0.000000 0.000000
							CHANNELS 3 Xrotation Yrotation Zrotation
							JOINT LeftShoulder
							{
								OFFSET 15.263000 10.923401 -0.547700
								CHANNELS 3 Xrotation Yrotation Zrotation
								JOINT LeftArm
								{
									OFFSET 25.438599 -2.830597 -13.032500
									CHANNELS 3 Xrotation Yrotation Zrotation
									JOINT LeftForeArm
									{
										OFFSET 29.960503 0.000000 0.000000
										CHANNELS 3 Xrotation Yrotation Zrotation
										JOINT LeftHand
										{
											OFFSET 27.849251 0.000000 0.000000
											CHANNELS 3 Xrotation Yrotation Zrotation
											End Site
											{
												OFFSET 0 0 0
											}
										}
									}
								}
							}
						}
						JOINT RightShoulder_virtual
						{
							OFFSET 0.000000 0.000000 0.000000
							CHANNELS 3 Xrotation Yrotation Zrotation
							JOINT RightShoulder
							{
								OFFSET -15.263000 10.923401 -0.547700
								CHANNELS 3 Xrotation Yrotation Zrotation
								JOINT RightArm
								{
									OFFSET -25.438599 -2.830597 -13.032500
									CHANNELS 3 Xrotation Yrotation Zrotation
									JOINT RightForeArm
									{
										OFFSET -29.960503 0.000000 0.000000
										CHANNELS 3 Xrotation Yrotation Zrotation
										JOINT RightHand
										{
											OFFSET -27.849251 0.000000 0.000000
											CHANNELS 3 Xrotation Yrotation Zrotation
											End Site
											{
												OFFSET 0 0 0
											}
										}
									}
								}
							}
						}
					}
				}
			}
		}
	}
}
MOTION
Frames: 4
Frame Time: 0.03333333
-9.303182 91.678337 10.689095 0.000000 0.000000 0.000000 1.129753 -3.234259 3.391091 -12.396898 -1.179976 1.421037 16.084961 8.471123 -1.761873 3.337976 -0.094157 0.197872 0.000000 0.000000 0.000000 0.927401 -2.232723 3.526731 -22.154108 -10.423446 -18.285601 38.725988 2.054014 -1.846878 -14.366675 -6.520932 -1.606683 0.000000 0.000000 0.000000 0.950952 -2.526641 3.755130 -0.779832 0.030019 -0.110440 10.969032 1.809083 6.589180 1.196917 0.453789 1.747637 0.000000 0.000000 0.000000 -1.440583 -0.188944 1.759841 0.453324 -3.771332 0.900516 0.000000 0.000000 0.000000 -0.526242 -0.404584 1.136257 -2.068024 0.119269 -10.168572 9.381258 -20.188729 -43.075370 -29.341909 -61.523769 -21.845190 0.000000 0.000000 0.000000 -1.587015 0.462074 2.238303 6.538749 16.267687 11.795853 -32.165143 17.702459 58.468625 82.367451 75.409626 -78.035369 0.000000 0.000000 0.000000 
-9.337741 91.718498 10.781414 0.000000 0.000000 0.000000 1.100175 -3.415356 3.405525 -12.128147 -1.222486 1.368087 15.955149 8.455292 -1.579941 3.316382 -0.185780 0.080992 0.000000 0.000000 0.000000 0.896069 -2.413799 3.531655 -21.763124 -9.801328 -17.817011 38.448641 1.811826 -1.913183 -14.422648 -6.720355 -1.611729 0.000000 0.000000 0.000000 0.928939 -2.676909 3.758342 -0.777487 0.032004 -0.111082 10.936297 1.481777 6.545796 0.937959 0.374458 1.757483 0.000000 0.000000 0.000000 -1.498700 -0.247085 1.705091 0.554992 -3.793692 0.856273 0.000000 0.000000 0.000000 -0.790218 -0.447676 1.024957 -1.961915 -0.216974 -10.170157 9.716096 -19.552484 -43.109429 -30.710849 -61.885926 -23.199977 0.000000 0.000000 0.000000 -1.780339 0.411585 2.271457 7.095244 16.701143 11.861050 -27.347968 20.084533 57.569376 98.527098 76.234077 -93.854067 0.000000 0.000000 0.000000 
-9.339256 91.759315 10.850994 0.000000 0.000000 0.000000 1.024471 -3.624815 3.406730 -11.815248 -1.167194 1.300410 15.818272 8.459568 -1.429747 3.266632 -0.221364 0.044466 0.000000 0.000000 0.000000 0.816482 -2.624526 3.518754 -21.302025 -9.152554 -17.359105 38.125556 1.562869 -1.947053 -14.429584 -6.953684 -1.622768 0.000000 0.000000 0.000000 0.845777 -2.839829 3.739247 -0.775765 0.035806 -0.108529 10.937336 1.126511 6.490173 0.681426 0.268181 1.773932 0.000000 0.000000 0.000000 -1.577160 -0.341846 1.643416 0.648211 -3.817357 0.796380 0.000000 0.000000 0.000000 -1.080937 -0.517646 0.935763 -1.822132 -0.580938 -10.118759 9.986529 -19.138803 -43.040201 -31.974247 -62.077376 -24.512000 0.000000 0.000000 0.000000 -2.005534 0.323371 2.285977 7.606701 17.339084 11.854757 -22.697337 23.211293 56.051305 111.783798 76.318854 -106.760986 0.000000 0.000000 0.000000 
-9.306162 91.796761 10.906662 0.000000 0.000000 0.000000 0.882429 -3.875543 3.391052 -11.457514 -1.011562 1.237726 15.690486 8.481182 -1.313274 3.219249 -0.197657 0.066033 0.000000 0.000000 0.000000 0.665305 -2.874372 3.480423 -20.789317 -8.498236 -16.920472 37.806887 1.308253 -1.946328 -14.344464 -7.214293 -1.664326 0.000000 0.000000 0.000000 0.687056 -3.049110 3.697719 -0.773921 0.043340 -0.103389 10.979557 0.790445 6.410930 0.436474 0.168405 1.793264 0.000000 0.000000 0.000000 -1.682353 -0.442275 1.572707 0.728452 -3.844325 0.724049 0.000000 0.000000 0.000000 -1.384481 -0.585102 0.871055 -1.648699 -0.962191 -9.993672 10.185472 -18.904702 -42.904581 -33.085774 -62.157529 -25.736972 0.000000 0.000000 0.000000 -2.240968 0.237391 2.271755 8.083479 18.189311 11.613459 -18.364669 27.115967 53.778638 120.485261 76.264178 -115.142865 0.000000 0.000000 0.000000 
